# Blender v2.79 (sub 0) OBJ File: 'iron.blend'
# www.blender.org
mtllib iron.mtl
o Cube
v 0.459110 0.520959 -0.132692
v 0.459110 0.518572 -0.138727
v 0.472340 0.518502 -0.133746
v 0.459110 0.520653 -0.135300
v 0.465714 0.520618 -0.132813
v 0.465435 0.520321 -0.135314
v 0.465714 0.518550 -0.138041
v 0.459110 0.519777 -0.137516
v 0.465435 0.519704 -0.136873
v 0.470569 0.519715 -0.133199
v 0.470569 0.518523 -0.136212
v 0.468852 0.519686 -0.135586
v -0.459110 0.518572 -0.138727
v -0.459110 0.520959 -0.132692
v -0.472335 0.518501 -0.133745
v -0.459110 0.519777 -0.137516
v -0.465714 0.518550 -0.138041
v -0.465434 0.519704 -0.136873
v -0.465714 0.520618 -0.132813
v -0.459110 0.520653 -0.135301
v -0.465434 0.520321 -0.135314
v -0.470568 0.518523 -0.136213
v -0.470568 0.519715 -0.133199
v -0.468852 0.519686 -0.135586
v 0.472340 0.345365 -0.168979
v 0.459110 0.345366 -0.173995
v 0.470564 0.345366 -0.171486
v 0.465723 0.345366 -0.173323
v -0.459110 0.345366 -0.173995
v -0.472335 0.345366 -0.168978
v -0.465723 0.345366 -0.173323
v -0.470564 0.345366 -0.171486
v 0.472293 0.345374 0.000000
v -0.472336 0.345366 0.000000
v 0.459110 0.520959 0.132692
v 0.459110 0.518572 0.138727
v 0.472340 0.518502 0.133746
v 0.459110 0.520653 0.135300
v 0.465714 0.520618 0.132813
v 0.465435 0.520321 0.135314
v 0.465714 0.518550 0.138041
v 0.459110 0.519777 0.137516
v 0.465435 0.519704 0.136873
v 0.470569 0.519715 0.133199
v 0.470569 0.518523 0.136213
v 0.468852 0.519686 0.135586
v -0.459110 0.518572 0.138727
v -0.459110 0.520959 0.132692
v -0.472335 0.518501 0.133745
v -0.459110 0.519777 0.137516
v -0.465714 0.518550 0.138041
v -0.465434 0.519704 0.136873
v -0.465714 0.520618 0.132813
v -0.459110 0.520653 0.135301
v -0.465434 0.520321 0.135314
v -0.470568 0.518523 0.136213
v -0.470568 0.519715 0.133199
v -0.468852 0.519686 0.135586
v 0.472340 0.345365 0.168979
v 0.459110 0.345366 0.173995
v 0.470564 0.345366 0.171486
v 0.465723 0.345366 0.173323
v -0.459110 0.345366 0.173995
v -0.472335 0.345366 0.168978
v -0.465723 0.345366 0.173323
v -0.470564 0.345366 0.171486
v 0.459110 0.520959 0.000000
v 0.472340 0.518502 0.000000
v 0.465723 0.520630 0.000000
v 0.470564 0.519730 0.000000
v -0.472335 0.518501 0.000000
v -0.459110 0.520959 0.000000
v -0.470564 0.519730 0.000000
v -0.465723 0.520630 0.000000
v -0.229555 0.345366 0.173995
v -0.114777 0.345366 0.173995
v -0.178846 0.364952 0.169693
vt 0.421109 0.374524
vt 0.428217 0.442486
vt 0.795081 0.586513
vt 0.251174 0.499520
vt 0.327212 0.469775
vt 0.297533 0.369546
vt 0.296048 0.370018
vt 0.330183 0.469896
vt 0.410453 0.436922
vt 0.768328 0.631545
vt 0.811977 0.549242
vt 0.421018 0.327703
vt 0.499771 0.487120
vt 0.501468 0.488602
vt 0.502550 0.486913
vt 0.501053 0.485677
vt 0.500248 0.484436
vt 0.499666 0.482612
vt 0.497674 0.482936
vt 0.498406 0.485120
vt 0.501631 0.482627
vt 0.503670 0.483006
vt 0.501563 0.484445
vt 0.503285 0.485066
vt 0.688547 0.593577
vt 0.690524 0.593128
vt 0.689851 0.591472
vt 0.686383 0.593489
vt 0.688185 0.591887
vt 0.685228 0.591246
vt 0.684434 0.592872
vt 0.686309 0.589829
vt 0.686865 0.591804
vt 0.687714 0.588589
vt 0.687577 0.590865
vt 0.688938 0.589980
vt 0.451619 0.466959
vt 0.688039 0.601331
vt 0.690355 0.597189
vt 0.453936 0.462817
vt 0.692673 0.593047
vt 0.456253 0.458675
vt 0.694989 0.588904
vt 0.494659 0.368142
vt 0.496717 0.368213
vt 0.498768 0.368336
vt 0.605160 0.541635
vt 0.604259 0.543221
vt 0.603360 0.544805
vt 0.602475 0.546362
vt 0.777435 0.539698
vt 0.778471 0.541206
vt 0.779470 0.542743
vt 0.595905 0.534945
vt 0.594908 0.536714
vt 0.593910 0.538482
vt 0.676550 0.673537
vt 0.765260 0.639619
vt 0.415329 0.443355
vt 0.626427 0.445633
vt 0.805312 0.543789
vt 0.413022 0.436550
vt 0.415043 0.324985
vt 0.250688 0.496669
vt 0.768760 0.632280
vt 0.688481 0.489072
vt 0.419605 0.434876
vt 0.685311 0.589965
vt 0.684431 0.591779
vt 0.686606 0.592461
vt 0.687138 0.590581
vt 0.689018 0.592551
vt 0.691219 0.592044
vt 0.690464 0.590202
vt 0.688608 0.590669
vt 0.689442 0.588541
vt 0.688073 0.586996
vt 0.686511 0.588381
vt 0.687928 0.589532
vt 0.518973 0.494423
vt 0.517206 0.494693
vt 0.517833 0.496620
vt 0.519470 0.496066
vt 0.519017 0.498434
vt 0.520545 0.499792
vt 0.521535 0.498277
vt 0.520217 0.497157
vt 0.522198 0.496623
vt 0.522544 0.494781
vt 0.520722 0.494442
vt 0.520659 0.496065
vt 0.500849 0.485836
vt 0.499602 0.487948
vt 0.722560 0.614322
vt 0.502094 0.483722
vt 0.723806 0.612209
vt 0.503340 0.481610
vt 0.725051 0.610096
vt 0.791183 0.537338
vt 0.790172 0.535625
vt 0.789055 0.533916
vt 0.787897 0.532238
vt 0.518583 0.392692
vt 0.516757 0.392574
vt 0.514925 0.392504
vt 0.257595 0.503808
vt 0.608756 0.700687
vt 0.766050 0.633199
vt 0.769208 0.632010
vt 0.768407 0.632970
vt 0.767252 0.633406
vt 0.420532 0.431452
vt 0.421368 0.435264
vt 0.421430 0.428656
vt 0.201716 0.403618
vt 0.412302 0.327378
vt 0.419879 0.438258
vt 0.458570 0.454532
vt 0.492654 0.368165
vt 0.780372 0.544283
vt 0.592930 0.540221
vt 0.335847 0.474811
vt 0.811902 0.554344
vt 0.810979 0.556795
vt 0.811332 0.550875
vt 0.480309 0.363274
vt 0.420423 0.337033
vt 0.541263 0.396214
vt 0.427014 0.331244
vt 0.422220 0.334808
vt 0.424486 0.332915
vt 0.201496 0.404132
vt 0.423555 0.330536
vt 0.657505 0.462030
vt 0.811123 0.549052
vt 0.692921 0.481399
vt 0.726297 0.607984
vt 0.513141 0.392517
vn 0.0000 -1.0000 0.0000
vn 1.0000 -0.0003 0.0000
vn -1.0000 0.0000 -0.0000
vn 0.0000 0.1995 -0.9799
vn 0.0492 0.9920 -0.1163
vn 0.0480 0.9288 -0.3673
vn 0.0754 0.7070 -0.7032
vn 0.2488 0.7179 -0.6502
vn 0.4502 0.8351 -0.3160
vn 0.1707 0.9760 -0.1349
vn 0.1421 0.9205 -0.3641
vn -0.0754 0.7070 -0.7032
vn -0.0480 0.9288 -0.3674
vn -0.0492 0.9920 -0.1163
vn -0.1707 0.9761 -0.1348
vn -0.4590 0.8207 -0.3403
vn -0.2488 0.7179 -0.6502
vn -0.1421 0.9205 -0.3641
vn 0.0000 0.9932 -0.1165
vn 0.0000 0.9299 -0.3679
vn 0.0000 0.7090 -0.7052
vn 0.1019 0.1986 -0.9748
vn 0.3472 0.1872 -0.9189
vn 0.8070 0.1178 -0.5786
vn -0.5700 0.8217 -0.0001
vn -0.1827 0.9832 -0.0001
vn -0.0497 0.9988 0.0000
vn -0.8079 0.1175 -0.5774
vn -0.3472 0.1872 -0.9189
vn -0.1019 0.1986 -0.9748
vn 0.5652 0.8250 0.0000
vn 0.1827 0.9832 -0.0001
vn 0.0516 0.9987 -0.0001
vn 0.0000 1.0000 0.0000
vn 1.0000 -0.0001 -0.0003
vn 0.0000 0.1976 0.9803
vn 0.0492 0.9920 0.1163
vn 0.0480 0.9288 0.3674
vn 0.0754 0.7070 0.7032
vn 0.2488 0.7179 0.6502
vn 0.4580 0.8215 0.3395
vn 0.1707 0.9761 0.1348
vn 0.1421 0.9205 0.3641
vn -0.0754 0.7070 0.7032
vn -0.0480 0.9288 0.3674
vn -0.0492 0.9920 0.1163
vn -0.1707 0.9761 0.1348
vn -0.4506 0.8353 0.3150
vn -0.2488 0.7179 0.6502
vn -0.1421 0.9205 0.3641
vn 0.0000 0.9932 0.1165
vn 0.0000 0.9299 0.3679
vn 0.0000 0.7090 0.7052
vn 0.0991 0.1985 0.9751
vn 0.3484 0.1871 0.9185
vn 0.8103 0.1170 0.5742
vn -0.5665 0.8241 0.0000
vn -0.1827 0.9832 0.0001
vn -0.0516 0.9987 0.0001
vn -0.8080 0.1175 0.5774
vn -0.3472 0.1872 0.9189
vn -0.1019 0.1986 0.9748
vn 0.1827 0.9832 0.0001
vn 0.0516 0.9987 0.0001
vn -0.0001 -1.0000 0.0001
vn 0.0001 -1.0000 -0.0004
vn 1.0000 -0.0001 0.0003
vn 0.0518 0.9910 -0.1234
vn 0.0480 0.9288 -0.3674
vn 0.0785 0.7183 -0.6913
vn 0.4580 0.8216 -0.3395
vn 0.1707 0.9761 -0.1348
vn -0.0785 0.7183 -0.6913
vn -0.0480 0.9288 -0.3673
vn -0.0518 0.9910 -0.1234
vn -0.1707 0.9760 -0.1349
vn -0.4506 0.8353 -0.3150
vn 0.0000 0.9299 -0.3678
vn 0.0991 0.1985 -0.9751
vn 0.3484 0.1871 -0.9185
vn 0.8103 0.1169 -0.5742
vn -0.0516 0.9987 -0.0001
vn -0.8112 0.1167 -0.5730
vn -0.3484 0.1871 -0.9185
vn -0.0991 0.1985 -0.9751
vn 0.5687 0.8225 -0.0001
vn 0.0497 0.9988 0.0000
vn 0.0001 -1.0000 0.0004
vn -0.0001 -1.0000 -0.0001
vn 0.2971 -0.8602 -0.4145
vn -0.2755 -0.7769 0.5662
vn -0.0005 0.1995 0.9799
vn 0.0000 0.2145 0.9767
vn 0.0011 0.1995 0.9799
vn 0.0518 0.9910 0.1234
vn 0.0785 0.7183 0.6913
vn 0.4502 0.8351 0.3160
vn 0.1707 0.9760 0.1349
vn -0.0785 0.7183 0.6913
vn -0.0480 0.9288 0.3673
vn -0.0518 0.9910 0.1234
vn -0.1707 0.9760 0.1349
vn -0.4590 0.8207 0.3403
vn 0.0000 0.9299 0.3678
vn 0.1019 0.1986 0.9748
vn 0.3472 0.1872 0.9189
vn 0.8070 0.1178 0.5786
vn -0.5700 0.8216 0.0001
vn -0.8112 0.1167 0.5730
vn -0.3484 0.1871 0.9185
vn -0.0991 0.1985 0.9751
vn 0.5687 0.8225 0.0001
usemtl Material
s off
f 34/1/1 29/2/1 33/3/1
f 3/4/2 68/5/2 33/6/2
f 34/7/3 71/8/3 15/9/3
f 2/10/4 26/11/4 29/12/4
f 4/13/5 1/14/5 5/15/5
f 4/13/6 6/16/6 9/17/6
f 7/18/7 2/19/7 8/20/7
f 11/21/8 7/18/8 9/17/8
f 3/22/9 11/21/9 12/23/9
f 10/24/10 12/23/10 6/16/10
f 6/16/11 12/23/11 9/17/11
f 16/25/12 13/26/12 17/27/12
f 20/28/13 16/25/13 18/29/13
f 19/30/14 14/31/14 20/28/14
f 23/32/15 19/30/15 21/33/15
f 15/34/16 23/32/16 24/35/16
f 22/36/17 24/35/17 18/29/17
f 18/29/18 24/35/18 21/33/18
f 14/37/19 1/38/19 4/39/19
f 20/40/20 4/39/20 8/41/20
f 16/42/21 8/41/21 2/43/21
f 2/19/22 7/18/22 28/44/22
f 7/18/23 11/21/23 27/45/23
f 11/21/24 3/22/24 25/46/24
f 71/47/25 73/48/25 23/32/25
f 73/48/26 74/49/26 19/30/26
f 74/49/27 72/50/27 14/31/27
f 30/51/28 15/34/28 22/36/28
f 32/52/29 22/36/29 17/27/29
f 31/53/30 17/27/30 13/26/30
f 68/54/31 3/22/31 10/24/31
f 70/55/32 10/24/32 5/15/32
f 69/56/33 5/15/33 1/14/33
f 67/57/34 1/58/34 14/59/34
f 76/60/1 33/3/1 60/61/1
f 37/62/35 59/63/35 33/6/35
f 49/64/3 71/8/3 34/7/3
f 47/65/36 77/66/36 36/67/36
f 39/68/37 35/69/37 38/70/37
f 40/71/38 38/70/38 42/72/38
f 42/72/39 36/73/39 41/74/39
f 43/75/40 41/74/40 45/76/40
f 37/77/41 44/78/41 46/79/41
f 44/78/42 39/68/42 40/71/42
f 40/71/43 43/75/43 46/79/43
f 51/80/44 47/81/44 50/82/44
f 52/83/45 50/82/45 54/84/45
f 54/84/46 48/85/46 53/86/46
f 55/87/47 53/86/47 57/88/47
f 49/89/48 56/90/48 58/91/48
f 56/90/49 51/80/49 52/83/49
f 52/83/50 55/87/50 58/91/50
f 38/92/51 35/93/51 48/94/51
f 42/95/52 38/92/52 54/96/52
f 36/97/53 42/95/53 50/98/53
f 36/73/54 60/99/54 62/100/54
f 41/74/55 62/100/55 61/101/55
f 45/76/56 61/101/56 59/102/56
f 71/47/57 49/89/57 57/88/57
f 73/48/58 57/88/58 53/86/58
f 74/49/59 53/86/59 48/85/59
f 56/90/60 49/89/60 64/103/60
f 51/80/61 56/90/61 66/104/61
f 47/81/62 51/80/62 65/105/62
f 44/78/31 37/77/31 68/54/31
f 39/68/63 44/78/63 70/55/63
f 35/69/64 39/68/64 69/56/64
f 48/106/34 35/107/34 67/57/34
f 33/3/65 26/108/65 25/109/65
f 25/109/66 26/108/66 27/110/66
f 27/110/1 26/108/1 28/111/1
f 26/108/1 33/3/1 29/2/1
f 29/2/1 32/112/1 31/113/1
f 30/114/1 32/112/1 29/2/1
f 30/114/1 29/2/1 34/1/1
f 3/4/67 33/6/67 25/115/67
f 34/7/3 15/9/3 30/116/3
f 2/10/4 29/12/4 13/117/4
f 4/13/68 5/15/68 6/16/68
f 4/13/69 9/17/69 8/20/69
f 7/18/70 8/20/70 9/17/70
f 11/21/8 9/17/8 12/23/8
f 3/22/71 12/23/71 10/24/71
f 10/24/72 6/16/72 5/15/72
f 16/25/73 17/27/73 18/29/73
f 20/28/74 18/29/74 21/33/74
f 19/30/75 20/28/75 21/33/75
f 23/32/76 21/33/76 24/35/76
f 15/34/77 24/35/77 22/36/77
f 22/36/17 18/29/17 17/27/17
f 14/37/19 4/39/19 20/40/19
f 20/40/78 8/41/78 16/42/78
f 16/42/21 2/43/21 13/118/21
f 2/19/79 28/44/79 26/119/79
f 7/18/80 27/45/80 28/44/80
f 11/21/81 25/46/81 27/45/81
f 71/47/57 23/32/57 15/34/57
f 73/48/26 19/30/26 23/32/26
f 74/49/82 14/31/82 19/30/82
f 30/51/83 22/36/83 32/52/83
f 32/52/84 17/27/84 31/53/84
f 31/53/85 13/26/85 29/120/85
f 68/54/86 10/24/86 70/55/86
f 70/55/32 5/15/32 69/56/32
f 69/56/87 1/14/87 67/121/87
f 67/57/34 14/59/34 72/122/34
f 61/123/88 60/61/88 59/124/88
f 59/124/89 60/61/89 33/3/89
f 61/123/1 62/125/1 60/61/1
f 33/3/1 76/60/1 34/1/1
f 34/1/1 75/126/1 64/127/1
f 77/128/90 75/126/90 34/1/90
f 64/127/1 63/129/1 66/130/1
f 66/130/1 63/129/1 65/131/1
f 63/129/1 64/127/1 75/126/1
f 77/128/91 34/1/91 76/60/91
f 37/62/2 33/6/2 68/5/2
f 49/64/3 34/7/3 64/132/3
f 36/67/92 77/66/92 60/133/92
f 60/133/93 77/66/93 76/134/93
f 77/66/93 63/135/93 75/136/93
f 63/135/94 77/66/94 47/65/94
f 39/68/95 38/70/95 40/71/95
f 40/71/38 42/72/38 43/75/38
f 42/72/96 41/74/96 43/75/96
f 43/75/40 45/76/40 46/79/40
f 37/77/97 46/79/97 45/76/97
f 44/78/98 40/71/98 46/79/98
f 51/80/99 50/82/99 52/83/99
f 52/83/100 54/84/100 55/87/100
f 54/84/101 53/86/101 55/87/101
f 55/87/102 57/88/102 58/91/102
f 49/89/103 58/91/103 57/88/103
f 56/90/49 52/83/49 58/91/49
f 38/92/51 48/94/51 54/96/51
f 42/95/104 54/96/104 50/98/104
f 36/97/53 50/98/53 47/137/53
f 36/73/105 62/100/105 41/74/105
f 41/74/106 61/101/106 45/76/106
f 45/76/107 59/102/107 37/77/107
f 71/47/108 57/88/108 73/48/108
f 73/48/58 53/86/58 74/49/58
f 74/49/27 48/85/27 72/50/27
f 56/90/109 64/103/109 66/104/109
f 51/80/110 66/104/110 65/105/110
f 47/81/111 65/105/111 63/138/111
f 44/78/112 68/54/112 70/55/112
f 39/68/63 70/55/63 69/56/63
f 35/69/87 69/56/87 67/121/87
f 48/106/34 67/57/34 72/122/34
